HIERARCHY
ROOT joint_Root
{
	OFFSET 0.0 0.0 0.0
	CHANNELS 6 Xposition Yposition Zposition Zrotation Xrotation Yrotation 
	JOINT Hips
	{
		OFFSET -17.1583 93.1646 452.98
		CHANNELS 6 Xposition Yposition Zposition Zrotation Xrotation Yrotation 
		JOINT Spine
		{
			OFFSET 15.7357 0.0 0.0
			CHANNELS 6 Xposition Yposition Zposition Zrotation Xrotation Yrotation 
			JOINT Chest
			{
				OFFSET 8.98455 -0.406207 0.0
				CHANNELS 6 Xposition Yposition Zposition Zrotation Xrotation Yrotation 
				JOINT Neck
				{
					OFFSET 16.3773 0.0 0.0
					CHANNELS 6 Xposition Yposition Zposition Zrotation Xrotation Yrotation 
					JOINT Head
					{
						OFFSET 6.45672 0.0 0.0
						CHANNELS 6 Xposition Yposition Zposition Zrotation Xrotation Yrotation 
						End Site
						{
							OFFSET 0.0 0.0 0.0
						}
					}
				}
				JOINT Shoulder_L
				{
					OFFSET 12.9942 -0.242716 4.98039
					CHANNELS 6 Xposition Yposition Zposition Zrotation Xrotation Yrotation 
					JOINT UpperArm_L
					{
						OFFSET 5.34809 0.0 0.0
						CHANNELS 6 Xposition Yposition Zposition Zrotation Xrotation Yrotation 
						JOINT LowerArm_L
						{
							OFFSET 24.3286 1.87007e-05 0.0
							CHANNELS 6 Xposition Yposition Zposition Zrotation Xrotation Yrotation 
							JOINT Hand_L
							{
								OFFSET 22.2916 0.0 0.0
								CHANNELS 6 Xposition Yposition Zposition Zrotation Xrotation Yrotation 
								End Site
								{
									OFFSET 0.0 0.0 0.0
								}
							}
						}
					}
				}
				JOINT Shoulder_R
				{
					OFFSET 12.9945 -0.242716 -4.98039
					CHANNELS 6 Xposition Yposition Zposition Zrotation Xrotation Yrotation 
					JOINT UpperArm_R
					{
						OFFSET -5.34813 0.0 0.0
						CHANNELS 6 Xposition Yposition Zposition Zrotation Xrotation Yrotation 
						JOINT LowerArm_R
						{
							OFFSET -24.3289 0.000322201 0.0
							CHANNELS 6 Xposition Yposition Zposition Zrotation Xrotation Yrotation 
							JOINT Hand_R
							{
								OFFSET -22.2915 -0.000108084 0.0
								CHANNELS 6 Xposition Yposition Zposition Zrotation Xrotation Yrotation 
								End Site
								{
									OFFSET 0.0 0.0 0.0
								}
							}
						}
					}
				}
			}
		}
		JOINT UpperLeg_L
		{
			OFFSET -2.19248 -6.46944 0.0
			CHANNELS 6 Xposition Yposition Zposition Zrotation Xrotation Yrotation 
			JOINT LowerLeg_L
			{
				OFFSET 39.0811 0.0 -1.23785e-05
				CHANNELS 6 Xposition Yposition Zposition Zrotation Xrotation Yrotation 
				JOINT Foot_L
				{
					OFFSET 40.9854 0.0 -1.26872e-05
					CHANNELS 6 Xposition Yposition Zposition Zrotation Xrotation Yrotation 
					JOINT Toes_L
					{
						OFFSET 11.7543 0.0 0.0
						CHANNELS 6 Xposition Yposition Zposition Zrotation Xrotation Yrotation 
						End Site
						{
							OFFSET 0.0 0.0 0.0
						}
					}
				}
			}
		}
		JOINT UpperLeg_R
		{
			OFFSET -2.19251 6.46944 0.0
			CHANNELS 6 Xposition Yposition Zposition Zrotation Xrotation Yrotation 
			JOINT LowerLeg_R
			{
				OFFSET -39.0811 -0.00228153 -0.0401928
				CHANNELS 6 Xposition Yposition Zposition Zrotation Xrotation Yrotation 
				JOINT Foot_R
				{
					OFFSET -40.9854 0.0 0.0
					CHANNELS 6 Xposition Yposition Zposition Zrotation Xrotation Yrotation 
					JOINT Toes_R
					{
						OFFSET -11.7543 0.0 0.0
						CHANNELS 6 Xposition Yposition Zposition Zrotation Xrotation Yrotation 
						End Site
						{
							OFFSET 0.0 0.0 0.0
						}
					}
				}
			}
		}
	}
}
MOTION
Frames:	4
Frame Time:	0.0333333
0.000000 0.000000 0.000000 0.000000 0.000000 -0.000000 -5.444450 91.980400 -0.457200 84.379700 2.596670 3.063710 15.735700 0.000005 -0.000001 56.254400 87.685500 -52.088500 8.984550 -0.406207 -0.000000 -3.796990 -2.989750 8.237670 16.377300 -0.000001 -0.000001 9.887190 2.162770 8.444590 6.456720 -0.000001 -0.000000 6.990750 6.690350 17.758900 12.994200 -0.242716 4.980390 -91.344900 3.931610 -71.099200 5.348090 -0.000007 -0.000001 -77.869700 -1.011560 -6.476130 24.328600 0.000019 0.000005 43.961000 -44.371900 -125.948000 22.291600 -0.000001 0.000005 51.117800 5.041550 6.422590 12.994500 -0.242716 -4.980390 87.362400 7.005930 -69.309000 -5.348130 -0.000001 -0.000004 -67.743600 0.860325 -5.957150 -24.328900 0.000322 -0.000009 20.234500 -23.796100 -137.585000 -22.291500 -0.000108 -0.000004 59.693000 5.668850 -17.207100 -2.192480 -6.469440 -0.000000 -170.666000 3.003700 -4.972130 39.081100 -0.000007 -0.000012 0.366838 -0.708242 27.383100 40.985400 -0.000006 -0.000013 -0.656481 8.996490 -76.054700 11.754300 -0.000000 0.000003 0.000702 0.154818 -10.298000 -2.192510 6.469440 -0.000001 -169.537000 10.181900 -177.605000 -39.081100 -0.002282 -0.040193 0.065386 -0.238347 14.593400 -40.985400 0.000008 0.000006 3.978940 2.906460 -70.277700 -11.754300 -0.000006 -0.000006 -0.010657 0.276147 -5.352890
0.000000 0.000000 0.000000 0.000000 0.000000 -0.000000 -5.432370 91.992400 -0.471746 84.402000 2.646920 3.064630 15.735700 0.000005 -0.000001 56.417500 87.686500 -52.284100 8.984550 -0.406207 -0.000000 -3.793040 -2.974210 8.173320 16.377300 -0.000001 -0.000001 9.888340 2.134660 8.388900 6.456720 -0.000001 -0.000000 7.013020 6.666830 17.693600 12.994200 -0.242716 4.980390 -91.349600 3.941050 -71.079200 5.348090 -0.000007 -0.000001 -77.928600 -1.004440 -6.551020 24.328600 0.000019 0.000005 43.844900 -44.245400 -125.996000 22.291600 -0.000001 0.000005 51.194100 5.042770 6.395730 12.994500 -0.242716 -4.980390 87.375000 6.990900 -69.359100 -5.348130 -0.000001 -0.000004 -67.761700 0.850424 -5.924110 -24.328900 0.000322 -0.000009 20.165800 -23.632900 -137.506000 -22.291500 -0.000108 -0.000004 59.649700 5.669830 -17.356300 -2.192480 -6.469440 -0.000000 -170.668000 3.051710 -4.985520 39.081100 -0.000007 -0.000012 0.351772 -0.680055 27.352000 40.985400 -0.000006 -0.000013 -0.903181 9.046850 -75.933700 11.754300 -0.000000 0.000003 0.000752 0.153836 -10.337900 -2.192510 6.469440 -0.000001 -169.586000 10.246500 -177.579000 -39.081100 -0.002282 -0.040193 0.063033 -0.230476 14.522500 -40.985400 0.000008 0.000006 3.942930 2.920890 -70.197400 -11.754300 -0.000006 -0.000006 -0.010312 0.273623 -5.456180
0.000000 0.000000 0.000000 0.000000 0.000000 -0.000000 -5.414930 91.988700 -0.494985 84.374200 2.690050 3.056700 15.735700 0.000005 -0.000001 56.616800 87.690600 -52.506500 8.984550 -0.406207 -0.000000 -3.792450 -2.953940 8.127560 16.377300 -0.000001 -0.000001 9.931820 2.153700 8.287810 6.456720 -0.000001 -0.000000 6.931250 6.646100 17.699300 12.994200 -0.242716 4.980390 -91.351000 3.942500 -71.067500 5.348090 -0.000007 -0.000001 -77.964700 -0.918325 -6.585680 24.328600 0.000019 0.000005 44.003800 -44.264100 -125.855000 22.291600 -0.000001 0.000005 51.211200 5.034190 6.583360 12.994500 -0.242716 -4.980390 87.377800 6.979360 -69.348400 -5.348130 -0.000001 -0.000004 -67.791700 0.940408 -5.927320 -24.328900 0.000322 -0.000009 20.323500 -23.722300 -137.365000 -22.291500 -0.000108 -0.000004 59.515700 5.667190 -16.967300 -2.192480 -6.469440 -0.000000 -170.679000 3.051890 -5.032640 39.081100 -0.000007 -0.000012 0.366363 -0.707149 27.388900 40.985400 -0.000006 -0.000013 -0.667217 9.054120 -76.002100 11.754300 -0.000000 0.000003 0.000805 0.152743 -10.382200 -2.192510 6.469440 -0.000001 -169.537000 10.204900 -177.636000 -39.081100 -0.002282 -0.040193 0.064956 -0.237274 14.559300 -40.985400 0.000008 0.000006 3.953860 2.815730 -70.216900 -11.754300 -0.000006 -0.000006 -0.010386 0.274168 -5.433890
0.000000 0.000000 0.000000 0.000000 0.000000 -0.000000 -5.374290 92.004200 -0.517525 84.398100 2.716730 3.060580 15.735700 0.000005 -0.000001 56.673400 87.683100 -52.599300 8.984550 -0.406207 -0.000000 -3.778460 -2.954310 8.055540 16.377300 -0.000001 -0.000001 9.926180 2.151230 8.235650 6.456720 -0.000001 -0.000000 6.962620 6.670420 17.600700 12.994200 -0.242716 4.980390 -91.345800 3.927350 -71.068300 5.348090 -0.000007 -0.000001 -78.080800 -0.914020 -6.570200 24.328600 0.000019 0.000005 44.061500 -44.298900 -125.817000 22.291600 -0.000001 0.000005 51.129000 5.025380 6.774530 12.994500 -0.242716 -4.980390 87.372300 6.989760 -69.336700 -5.348130 -0.000001 -0.000004 -67.786800 1.053840 -5.933980 -24.328900 0.000322 -0.000009 20.308800 -23.613200 -137.264000 -22.291500 -0.000108 -0.000004 59.444000 5.668440 -17.146800 -2.192480 -6.469440 -0.000000 -170.722000 3.094390 -5.012950 39.081100 -0.000007 -0.000012 0.358463 -0.694036 27.316800 40.985400 -0.000006 -0.000013 -0.710418 9.023310 -75.943700 11.754300 -0.000000 0.000003 0.000703 0.154813 -10.298200 -2.192510 6.469440 -0.000001 -169.601000 10.185900 -177.637000 -39.081100 -0.002282 -0.040193 0.063107 -0.230469 14.540300 -40.985400 0.000008 0.000006 3.838760 2.835060 -70.171500 -11.754300 -0.000006 -0.000006 -0.010410 0.274342 -5.426770
